# xmcd
#
# Track frame offsets:
# 150
# 19492
# 34125
# 50432
# 67167
# 85032
# 99042
# 112247
# 126820
# 145777
# 162947
# 180265
#
# Disc length: 2586 seconds
#
#
# Revision: 0
# Processed by: cddbd v1.5.1PL2 Copyright (c) Steve Scherf et al.
# Submitted via: FreeRIP 2.944 
#
DISCID=9d0a180c
DTITLE=Vários - As sertanejas mais romanticas
DYEAR=1900
DGENRE=Sertaneja
TTITLE0=Leandro e Leonardo-Quero ser o seu dono
TTITLE1=Christyan e Ralf-Chora peito
TTITLE2=Roberta Miranda-Vá com Deus
TTITLE3=Gian e Giovani-Sai dessa coração
TTITLE4=Matogrosso e Mathias-Na hora do adeus
TTITLE5=Tião Carreiro e pardinho-Amargurado
TTITLE6=Cezar e Paulinho-Grand prix do amor
TTITLE7=Chico Rey e Paraná-Tranque a porta e me beija
TTITLE8=Milionário e José Rico-Levando a vida
TTITLE9=Ataíde de Alexandre-Você marcou pra mim
TTITLE10=Jaine-Você vai ver
TTITLE11=Felipe e Falcão-Que pea
EXTD=
EXTT0=
EXTT1=
EXTT2=
EXTT3=
EXTT4=
EXTT5=
EXTT6=
EXTT7=
EXTT8=
EXTT9=
EXTT10=
EXTT11=
PLAYORDER=
